<svg width="24" height="24" viewBox="0 0 24 24" fill="none" xmlns="http://www.w3.org/2000/svg">
<rect width="24" height="24" transform="matrix(0 1 -1 0 24 0)" fill="white"/>
<path d="M4.9999 3.00009L4.9999 21.0001C5.00047 21.1823 5.05073 21.361 5.14528 21.5168C5.23982 21.6726 5.37506 21.7996 5.53645 21.8843C5.69784 21.9689 5.87926 22.008 6.06118 21.9972C6.2431 21.9864 6.41864 21.9262 6.5689 21.8231L19.5689 12.8231C20.1079 12.4501 20.1079 11.5521 19.5689 11.1781L6.5689 2.17809C6.41895 2.07391 6.24333 2.01282 6.0611 2.00145C5.87888 1.99008 5.69702 2.02887 5.53529 2.1136C5.37356 2.19833 5.23814 2.32576 5.14375 2.48205C5.04936 2.63834 4.99961 2.81751 4.9999 3.00009Z" fill="black"/>
</svg>
