<svg width="40" height="40" viewBox="0 0 40 40" fill="none" xmlns="http://www.w3.org/2000/svg">
<rect x="0.5" y="0.5" width="39" height="39" rx="19.5" stroke="white"/>
<path d="M19.72 24.232C20.064 24.232 20.356 24.176 20.596 24.064C20.844 23.944 21.044 23.788 21.196 23.596C21.356 23.396 21.472 23.172 21.544 22.924C21.624 22.668 21.664 22.4 21.664 22.12V21.976H22.672V22.12C22.672 22.544 22.608 22.944 22.48 23.32C22.352 23.688 22.164 24.012 21.916 24.292C21.668 24.564 21.36 24.78 20.992 24.94C20.624 25.092 20.2 25.168 19.72 25.168C18.792 25.168 18.068 24.876 17.548 24.292C17.028 23.708 16.768 22.856 16.768 21.736V19.864C16.768 18.776 17.028 17.932 17.548 17.332C18.068 16.732 18.792 16.432 19.72 16.432C20.2 16.432 20.624 16.512 20.992 16.672C21.36 16.824 21.668 17.04 21.916 17.32C22.164 17.592 22.352 17.916 22.48 18.292C22.608 18.66 22.672 19.056 22.672 19.48V19.624H21.664V19.48C21.656 19.208 21.612 18.944 21.532 18.688C21.46 18.432 21.344 18.208 21.184 18.016C21.032 17.816 20.836 17.66 20.596 17.548C20.356 17.428 20.064 17.368 19.72 17.368C19.072 17.368 18.584 17.604 18.256 18.076C17.936 18.548 17.776 19.168 17.776 19.936V21.664C17.776 22.488 17.936 23.124 18.256 23.572C18.584 24.012 19.072 24.232 19.72 24.232Z" fill="white"/>
</svg>
