<svg width="25" height="25" viewBox="0 0 25 25" fill="none" xmlns="http://www.w3.org/2000/svg">
<path d="M12.5 2.08334C11.132 2.08334 9.7775 2.35278 8.51369 2.87627C7.24989 3.39975 6.10156 4.16704 5.13428 5.13431C3.18078 7.08782 2.08331 9.73734 2.08331 12.5C2.08331 17.1042 5.0729 21.0104 9.20831 22.3958C9.72915 22.4792 9.89581 22.1563 9.89581 21.875V20.1146C7.0104 20.7396 6.39581 18.7188 6.39581 18.7188C5.91665 17.5104 5.23956 17.1875 5.23956 17.1875C4.29165 16.5417 5.31248 16.5625 5.31248 16.5625C6.35415 16.6354 6.90623 17.6354 6.90623 17.6354C7.81248 19.2188 9.34373 18.75 9.93748 18.5C10.0312 17.8229 10.3021 17.3646 10.5937 17.1042C8.28123 16.8438 5.85415 15.9479 5.85415 11.9792C5.85415 10.8229 6.24998 9.89584 6.92706 9.15626C6.8229 8.89584 6.45831 7.81251 7.03123 6.40626C7.03123 6.40626 7.90623 6.12501 9.89581 7.46876C10.7187 7.23959 11.6146 7.12501 12.5 7.12501C13.3854 7.12501 14.2812 7.23959 15.1041 7.46876C17.0937 6.12501 17.9687 6.40626 17.9687 6.40626C18.5416 7.81251 18.1771 8.89584 18.0729 9.15626C18.75 9.89584 19.1458 10.8229 19.1458 11.9792C19.1458 15.9583 16.7083 16.8333 14.3854 17.0938C14.7604 17.4167 15.1041 18.0521 15.1041 19.0208V21.875C15.1041 22.1563 15.2708 22.4896 15.8021 22.3958C19.9375 21 22.9166 17.1042 22.9166 12.5C22.9166 11.1321 22.6472 9.77753 22.1237 8.51372C21.6002 7.24992 20.833 6.10159 19.8657 5.13431C18.8984 4.16704 17.7501 3.39975 16.4863 2.87627C15.2225 2.35278 13.8679 2.08334 12.5 2.08334Z" fill="white"/>
</svg>
